<?xml version="1.0" encoding="utf-8"?>
<!-- SPDX-FileCopyrightText: © 2023 OneEyeFPV oneeyefpv@gmail.com -->
<!-- SPDX-License-Identifier: GPL-3.0-or-later -->
<!-- SPDX-License-Identifier: FS-0.9-or-later -->
<svg viewBox="0 0 500 300" xmlns="http://www.w3.org/2000/svg">
  <defs>
    <style>
      * {
          fill: #656565;
          stroke: #656565;
      }
      @media ( prefers-color-scheme: dark ) {
      * {
          fill: #FFFFFF;
          stroke: #FFFFFF;
        }
      }
    </style>
  </defs>
  <path d="M -350.498 82.3 A 4.065 4.065 0 0 1 -354.563 86.365 A 4.065 4.065 0 0 1 -358.628 82.3 A 4.065 4.065 0 0 1 -354.563 78.235 A 4.065 4.065 0 0 1 -350.498 82.3 Z"  transform="matrix(-1, 0, 0, 1, 0, 0)"/>
  <path d="M -361.131 48.475 H -355.03 A 2.619 2.619 0 0 1 -352.411 51.094 V 57.195 A 2.619 2.619 0 0 1 -355.03 59.814 H -361.131 A 2.619 2.619 0 0 1 -363.75 57.195 V 51.094 A 2.619 2.619 0 0 1 -361.131 48.475 Z"  transform="matrix(-1, 0, 0, 1, 0, 0)"/>
  <path d="M 395.154 58.11 C 396.427 60.549 397.7 60.549 398.973 58.11 L 402.279 51.777 C 403.552 49.338 402.915 48.119 400.369 48.119 L 393.757 48.119 C 391.211 48.119 390.575 49.338 391.848 51.777 L 395.154 58.11 Z" style="transform-origin: 397.063px 54.0291px;" transform="matrix(-1, 0, 0, -1, 0, -0.000007629395)"/>
  <path d="M -93.236 -68.985 H -81.439 A 1.508 1.508 0 0 1 -79.931 -67.477 V -66.184 A 1.508 1.508 0 0 1 -81.439 -64.676 H -93.236 A 1.508 1.508 0 0 1 -94.744 -66.184 V -67.477 A 1.508 1.508 0 0 1 -93.236 -68.985 Z" style="transform-origin: -87.3375px -66.8305px;" transform="matrix(-0.000009000002, 1, 1, 0.000009000002, 465.826782436628, 142.051362331461)"/>
  <path d="M -93.236 -68.985 H -81.439 A 1.508 1.508 0 0 1 -79.931 -67.477 V -66.184 A 1.508 1.508 0 0 1 -81.439 -64.676 H -93.236 A 1.508 1.508 0 0 1 -94.744 -66.184 V -67.477 A 1.508 1.508 0 0 1 -93.236 -68.985 Z" style="transform-origin: -87.337px -66.83px;" transform="matrix(-1, -0.000009000002, -0.000009000002, 1, 465.825674712268, 142.05138417763)"/>
  <path style="stroke: rgba(0, 0, 0, 0); transform-origin: 377.974px 67.8447px;" d="M 353.81 51.058 C 353.81 51.058 347.364 62.237 341.919 65.009 C 340.691 65.634 338.941 64.558 337.797 65.326 C 336.641 66.103 336.224 67.702 335.924 69.062 C 334.691 74.643 335.29 80.602 336.437 86.201 C 337.226 90.053 338.704 93.822 340.747 97.182 C 342.448 99.979 344.784 102.341 347.448 104.243 C 349.433 105.661 351.634 106.813 353.987 107.343 C 357.291 108.087 357.728 107.549 364.194 107.857 C 366.187 107.952 365.479 112.374 367.226 112.474 C 374.236 112.877 382.812 112.681 389.291 112.371 C 391.141 112.283 390.009 107.562 391.857 107.445 C 395.934 107.186 400.002 107.639 403.803 106.374 C 407.656 105.092 411.521 103.331 413.922 100.056 C 416.225 96.914 416.758 92.726 417.309 88.869 C 417.778 85.584 417.422 82.434 417.345 79.052 C 417.319 77.904 419.402 77.95 419.875 76.964 C 420.999 74.619 420.653 76.843 420.669 69.072 C 420.671 67.998 418.015 67.805 418.028 66.599 C 418.065 63.136 418.204 57.135 418.204 57.135 C 418.204 57.135 418.319 52.179 417.309 49.995 C 416.771 48.831 415.33 48.305 414.641 47.224 C 413.518 45.461 413.612 43.065 412.383 41.374 C 410.595 38.915 408.065 36.893 405.301 35.627 C 402.299 34.253 398.849 34.047 395.552 33.882 C 393.325 33.77 390.973 34.168 388.881 33.394 C 387.52 32.891 385.829 32.555 385.802 31.317 C 385.774 30.066 385.741 27.703 385.706 24.569 C 384.554 24.837 383.463 25.481 382.285 25.656 C 379.664 26.047 376.973 26.084 374.337 25.817 C 370.106 25.389 366.134 23.314 361.892 23.007 C 360.239 22.887 356.552 23.36 352.675 23.99 C 353.365 40.051 353.81 51.058 353.81 51.058 Z M 387.938 87.458 C 383.33 79.943 388.585 70.258 397.397 70.025 C 401.596 69.912 405.52 72.108 407.621 75.746 C 412.028 83.38 406.519 92.923 397.704 92.923 C 393.719 92.925 390.02 90.855 387.938 87.458 Z M 348.773 86.492 C 344.601 78.701 350.428 69.316 359.261 69.599 C 363.248 69.709 366.892 71.881 368.886 75.335 C 373.304 82.987 367.781 92.553 358.945 92.553 C 354.694 92.572 350.78 90.24 348.773 86.492 Z M 369.151 66.96 C 364.26 60.311 368.4 50.861 376.603 49.949 C 380.743 49.593 384.716 51.665 386.793 55.263 C 390.915 62.402 385.763 71.324 377.52 71.324 C 374.206 71.241 371.116 69.63 369.151 66.96 Z M 394.491 55.919 C 392.628 50.73 397.081 45.469 402.507 46.45 C 404.729 46.722 406.695 48.022 407.814 49.961 C 410.557 54.712 407.128 60.65 401.642 60.65 C 398.474 60.831 395.563 58.906 394.491 55.919 Z" transform="matrix(-1, 0, 0, -1, 0, 0)"/>
  <path style="transform-origin: 416.043px 181.27px;" d="M 379.389 160.69 C 378.273 159.11 364.061 141.017 362.565 140.392 C 360.34 139.463 357.745 140.874 355.339 140.713 C 352.925 140.552 350.496 140.173 348.194 139.428 C 346.019 138.724 343.793 137.89 342.011 136.458 C 341.03 135.67 340.031 134.696 339.683 133.487 C 339.043 131.263 339.365 128.649 340.406 126.582 C 340.994 125.415 342.222 124.677 343.296 123.933 C 344.949 122.788 346.48 122.204 348.389 121.571 C 349.137 121.323 350.29 121.134 351.004 120.802 C 353.192 119.786 354.351 117.15 356.544 116.145 C 358.22 115.377 360.16 115.222 362.003 115.262 C 364.517 115.316 366.877 116.878 369.39 116.787 C 370.863 116.734 372.187 115.8 373.645 115.583 C 376.266 115.192 378.957 115.155 381.593 115.422 C 385.824 115.85 389.796 117.925 394.038 118.232 C 396.796 118.432 405.222 116.981 410.738 115.904 C 413.637 115.338 416.39 114.029 419.329 113.736 C 422.075 113.462 424.897 113.573 427.598 114.138 C 431.354 114.923 435.16 116.109 438.357 118.232 C 439.713 119.133 440.927 120.348 441.729 121.765 C 442.823 123.697 443.129 125.997 443.495 128.188 C 444.111 131.876 445.022 135.247 445.743 138.786 C 446.398 142 448.31 149.126 449.918 154.201 C 451.312 158.6 452.87 162.953 454.655 167.208 C 455.4 168.985 456.847 171.217 458.17 172.619 C 460.455 175.041 463.596 175.316 465.896 177.244 C 466.928 178.109 467.449 179.513 468.545 180.295 C 469.767 181.167 475.064 182.356 476.481 182.849 C 485.518 185.992 480.802 185.05 490.186 188.448 C 503.797 193.376 458.812 239.257 450.339 247.976 C 446.826 251.591 444.831 244.141 442.636 241.645 C 441.463 240.311 440.913 238.519 439.806 237.13 C 439.184 236.349 438.42 235.31 437.627 234.704 C 437.084 234.289 436.338 233.529 432.738 233.549 C 431.079 233.558 425.906 232.034 422.552 230.931 C 421.648 230.634 419.085 229.558 417.829 228.817 C 415.704 227.564 412.515 226.844 408.816 219.894 C 408.35 219.018 406.482 215.451 405.466 211.969 C 404.314 208.022 404.02 204.127 403.794 203.315 C 403.053 200.657 396.077 191.616 392.277 185.11 C 389.779 180.834 387.647 175.559 385.124 170.878 C 383.275 167.447 381.638 163.873 379.389 160.69 Z"/>
  <path style="transform-origin: 397.229px 219.277px;" d="M 395.253 233.265 C 395.33 234.704 404.012 246.733 406.535 251.414 C 408.384 254.845 410.582 259.456 412.355 262.927 C 420.306 278.487 417.593 274.722 419.078 275.325 C 419.588 275.532 421.779 267.907 421.564 266.363 C 421.325 264.64 418.446 260.906 418.705 256.378 C 418.906 252.878 420.831 249.597 421.177 247.183 C 421.5 244.929 420.501 241.965 420.605 239.738 C 420.71 237.498 421.242 234.539 423.831 232.941 C 426.81 231.102 431.597 232.562 431.629 232.1 C 432.358 221.399 431.676 210.697 431.419 200.251 C 431.379 198.636 430.038 197.322 429.52 195.792 C 429.128 194.635 429.124 193.35 428.612 192.241 C 428.088 191.105 426.861 190.354 426.449 189.173 C 426.043 188.009 425.64 184.709 424.867 182.631 C 424.32 181.16 416.534 180.198 416.44 178.445 C 416.296 175.763 416.371 173.794 416.355 171.145 C 416.35 170.373 418.175 170.51 418.229 169.74 C 418.351 167.998 418.373 166.714 418.358 164.491 C 418.347 162.873 416.799 163.264 415.856 163.273 C 410.982 163.322 407.14 163.246 402.268 163.271 C 401.219 163.276 400.476 164.539 400.267 165.52 C 400.057 166.505 401.119 167.395 401.18 168.399 C 401.331 170.881 401.256 171.384 401.286 174.719 C 401.301 176.337 398.956 176.772 397.247 177.317 C 396.236 177.64 395.613 177.763 395.281 178.441 C 395.063 178.887 395.334 179.985 394.866 180.151 C 387.857 182.631 383.694 184.129 383.694 184.129 L 374.285 187.57 C 374.285 187.57 371.232 189.333 369.58 189.185 C 368.432 189.082 367.726 187.887 366.598 187.65 C 365.632 187.447 364.382 187.689 363.611 188.306 C 362.884 188.888 362.588 189.715 362.502 190.5 C 364.706 191.042 362.51 199.974 364.583 200.656 C 365.487 200.953 371.993 201.627 377.813 204.391 C 378.825 204.872 385.43 208.284 388.512 213.751 C 389.736 215.922 392.172 219.159 393.204 222.677 C 394.486 227.05 395.241 233.045 395.253 233.265 Z" transform="matrix(-1, 0, 0, -1, 0, 0)"/>
  <path style="transform-origin: 411.045px 184.312px;" d="M 368.07 201.514 C 367.246 202.261 365.879 202.196 364.777 202.048 C 363.646 201.896 362.484 201.418 361.663 200.625 C 360.47 199.473 359.619 197.824 359.438 196.175 C 359.278 194.716 360.255 193.35 360.506 191.904 C 360.609 191.314 360.578 190.055 360.328 189.285 C 359.788 187.626 355.227 184.213 354.722 183.174 C 353.929 181.544 354.179 179.55 354.366 177.746 C 354.559 175.878 354.826 173.873 355.879 172.318 C 356.674 171.144 359.056 170.701 359.26 169.298 C 359.455 167.954 354.468 163.632 353.832 162.085 C 353.194 160.533 352.915 158.767 353.121 157.102 C 353.313 155.544 354.001 154.029 354.9 152.742 C 355.681 151.623 358.735 148.454 360.83 147.042 C 362.385 145.993 370.87 157.809 370.674 161.004 C 370.53 163.362 369.499 164.544 369.108 166.245 C 368.529 168.768 367.4 170.71 367.813 172.657 C 368.122 174.114 369.11 174.612 370.024 177.186 C 370.752 179.235 371.026 182.235 370.925 183.198 C 370.618 186.137 368.319 188.3 368.089 191.166 C 367.947 192.943 369.098 200.582 368.07 201.514 Z"/>
  <path d="M 154.554 82.816 A 4.065 4.065 0 0 1 150.489 86.881 A 4.065 4.065 0 0 1 146.424 82.816 A 4.065 4.065 0 0 1 150.489 78.751 A 4.065 4.065 0 0 1 154.554 82.816 Z" />
  <path d="M 143.921 48.991 H 150.022 A 2.619 2.619 0 0 1 152.641 51.61 V 57.711 A 2.619 2.619 0 0 1 150.022 60.33 H 143.921 A 2.619 2.619 0 0 1 141.302 57.711 V 51.61 A 2.619 2.619 0 0 1 143.921 48.991 Z" />
  <path d="M 106.079 50.464 C 107.352 48.025 108.625 48.025 109.898 50.464 L 113.204 56.797 C 114.477 59.235 113.84 60.455 111.294 60.455 L 104.682 60.455 C 102.136 60.455 101.5 59.235 102.773 56.797 L 106.079 50.464 Z" style="transform-origin: 107.988px 54.5449px;"/>
  <path d="M 96.252 68.985 H 108.049 A 1.508 1.508 0 0 1 109.557 70.493 V 71.786 A 1.508 1.508 0 0 1 108.049 73.294 H 96.252 A 1.508 1.508 0 0 1 94.744 71.786 V 70.493 A 1.508 1.508 0 0 1 96.252 68.985 Z" style="transform-origin: 102.151px 71.1395px;" transform="matrix(0.000009000002, 1, -1, 0.000009000002, 24.411869061726, 4.597190243409)"/>
  <path d="M 96.252 68.985 H 108.049 A 1.508 1.508 0 0 1 109.557 70.493 V 71.786 A 1.508 1.508 0 0 1 108.049 73.294 H 96.252 A 1.508 1.508 0 0 1 94.744 71.786 V 70.493 A 1.508 1.508 0 0 1 96.252 68.985 Z" style="transform-origin: 102.151px 71.14px;" transform="matrix(1, -0.000009000002, 0.000009000002, 1, 24.4119752516, 4.597225172024)"/>
  <path style="transform-origin: 127.077px 68.3613px;" d="M 102.913 85.148 C 102.913 85.148 96.467 73.969 91.022 71.197 C 89.794 70.572 88.044 71.648 86.9 70.88 C 85.744 70.103 85.327 68.504 85.027 67.144 C 83.794 61.563 84.393 55.604 85.54 50.005 C 86.329 46.153 87.807 42.384 89.85 39.024 C 91.551 36.227 93.887 33.865 96.551 31.963 C 98.536 30.545 100.737 29.393 103.09 28.863 C 106.394 28.119 106.831 28.657 113.297 28.349 C 115.29 28.254 114.582 23.832 116.329 23.732 C 123.339 23.329 131.915 23.525 138.394 23.835 C 140.244 23.923 139.112 28.644 140.96 28.761 C 145.037 29.02 149.105 28.567 152.906 29.832 C 156.759 31.114 160.624 32.875 163.025 36.15 C 165.328 39.292 165.861 43.48 166.412 47.337 C 166.881 50.622 166.525 53.772 166.448 57.154 C 166.422 58.302 168.505 58.256 168.978 59.242 C 170.102 61.587 169.756 59.363 169.772 67.134 C 169.774 68.208 167.118 68.401 167.131 69.607 C 167.168 73.07 167.307 79.071 167.307 79.071 C 167.307 79.071 167.422 84.027 166.412 86.211 C 165.874 87.375 164.433 87.901 163.744 88.982 C 162.621 90.745 162.715 93.141 161.486 94.832 C 159.698 97.291 157.168 99.313 154.404 100.579 C 151.402 101.953 147.952 102.159 144.655 102.324 C 142.428 102.436 140.076 102.038 137.984 102.812 C 136.623 103.315 134.932 103.651 134.905 104.889 C 134.877 106.14 134.844 108.503 134.809 111.637 C 133.657 111.369 132.566 110.725 131.388 110.55 C 128.767 110.159 126.076 110.122 123.44 110.389 C 119.209 110.817 115.237 112.892 110.995 113.199 C 109.342 113.319 105.655 112.846 101.778 112.216 C 102.468 96.155 102.913 85.148 102.913 85.148 Z M 137.041 48.748 C 132.433 56.263 137.688 65.948 146.5 66.181 C 150.699 66.294 154.623 64.098 156.724 60.46 C 161.131 52.826 155.622 43.283 146.807 43.283 C 142.822 43.281 139.123 45.351 137.041 48.748 Z M 97.876 49.714 C 93.704 57.505 99.531 66.89 108.364 66.607 C 112.351 66.497 115.995 64.325 117.989 60.871 C 122.407 53.219 116.884 43.653 108.048 43.653 C 103.797 43.634 99.883 45.966 97.876 49.714 Z M 118.254 69.246 C 113.363 75.895 117.503 85.345 125.706 86.257 C 129.846 86.613 133.819 84.541 135.896 80.943 C 140.018 73.804 134.866 64.882 126.623 64.882 C 123.309 64.965 120.219 66.576 118.254 69.246 Z M 143.594 80.287 C 141.731 85.476 146.184 90.737 151.61 89.756 C 153.832 89.484 155.798 88.184 156.917 86.245 C 159.66 81.494 156.231 75.556 150.745 75.556 C 147.577 75.375 144.666 77.3 143.594 80.287 Z"/>
  <path style="transform-origin: 89.009px 181.786px;" d="M 52.355 202.365 C 51.239 203.945 37.027 222.038 35.531 222.663 C 33.306 223.592 30.711 222.181 28.305 222.342 C 25.891 222.503 23.462 222.882 21.16 223.627 C 18.985 224.331 16.759 225.165 14.977 226.597 C 13.996 227.385 12.997 228.359 12.649 229.568 C 12.009 231.792 12.331 234.406 13.372 236.473 C 13.96 237.64 15.188 238.378 16.262 239.122 C 17.915 240.267 19.446 240.851 21.355 241.484 C 22.103 241.732 23.256 241.921 23.97 242.253 C 26.158 243.269 27.317 245.905 29.51 246.91 C 31.186 247.678 33.126 247.833 34.969 247.793 C 37.483 247.739 39.843 246.177 42.356 246.268 C 43.829 246.321 45.153 247.255 46.611 247.472 C 49.232 247.863 51.923 247.9 54.559 247.633 C 58.79 247.205 62.762 245.13 67.004 244.823 C 69.762 244.623 78.188 246.074 83.704 247.151 C 86.603 247.717 89.356 249.026 92.295 249.319 C 95.041 249.593 97.863 249.482 100.564 248.917 C 104.32 248.132 108.126 246.946 111.323 244.823 C 112.679 243.922 113.893 242.707 114.695 241.29 C 115.789 239.358 116.095 237.058 116.461 234.867 C 117.077 231.179 117.988 227.808 118.709 224.269 C 119.364 221.055 121.276 213.929 122.884 208.854 C 124.278 204.455 125.836 200.102 127.621 195.847 C 128.366 194.07 129.813 191.838 131.136 190.436 C 133.421 188.014 136.562 187.739 138.862 185.811 C 139.894 184.946 140.415 183.542 141.511 182.76 C 142.733 181.888 148.03 180.699 149.447 180.206 C 158.484 177.063 153.768 178.005 163.152 174.607 C 176.763 169.679 131.778 123.798 123.305 115.079 C 119.792 111.464 117.797 118.914 115.602 121.41 C 114.429 122.744 113.879 124.536 112.772 125.925 C 112.15 126.706 111.386 127.745 110.593 128.351 C 110.05 128.766 109.304 129.526 105.704 129.506 C 104.045 129.497 98.872 131.021 95.518 132.124 C 94.614 132.421 92.051 133.497 90.795 134.238 C 88.67 135.491 85.481 136.211 81.782 143.161 C 81.316 144.037 79.448 147.604 78.432 151.086 C 77.28 155.033 76.986 158.928 76.76 159.74 C 76.019 162.398 69.043 171.439 65.243 177.945 C 62.745 182.221 60.613 187.496 58.09 192.177 C 56.241 195.608 54.604 199.182 52.355 202.365 Z" transform="matrix(-1, 0, 0, -1, 0.000015258789, 0)"/>
  <path style="transform-origin: 107.902px 215.212px;" d="M 104.841 207.269 C 104.918 205.83 106.638 204.527 109.267 200.026 C 111.765 195.75 115.521 191.605 118.044 186.924 C 119.893 183.493 121.176 179.614 122.949 176.143 C 130.9 160.583 135.879 155.185 137.364 154.582 C 138.276 154.212 136.651 182.804 137.714 199.428 C 137.766 200.249 137.095 200.972 136.995 201.789 C 136.916 202.435 137.458 203.364 138.232 204.117 C 139.694 205.541 142.305 205.661 142.426 207.441 C 143.155 218.142 142.27 228.373 142.013 238.819 C 141.973 240.434 140.632 241.748 140.114 243.278 C 139.722 244.435 139.718 245.72 139.206 246.829 C 138.682 247.965 137.455 248.716 137.043 249.897 C 136.637 251.061 136.234 254.361 135.461 256.439 C 134.914 257.91 127.128 258.872 127.034 260.625 C 126.89 263.307 126.965 265.276 126.949 267.925 C 126.944 268.697 128.769 268.56 128.823 269.33 C 128.945 271.072 128.967 272.356 128.952 274.579 C 128.941 276.197 127.393 275.806 126.45 275.797 C 121.576 275.748 117.734 275.824 112.862 275.799 C 111.813 275.794 111.07 274.531 110.861 273.55 C 110.651 272.565 111.713 271.675 111.774 270.671 C 111.925 268.189 111.85 267.686 111.88 264.351 C 111.895 262.733 109.55 262.298 107.841 261.753 C 106.83 261.43 106.207 261.307 105.875 260.629 C 105.657 260.183 105.928 259.085 105.46 258.919 C 98.451 256.439 94.288 254.941 94.288 254.941 L 84.879 251.5 C 84.879 251.5 81.826 249.737 80.174 249.885 C 79.026 249.988 78.32 251.183 77.192 251.42 C 76.226 251.623 74.976 251.381 74.205 250.764 C 73.478 250.182 73.182 249.355 73.096 248.57 C 75.3 248.028 73.104 239.096 75.177 238.414 C 76.081 238.117 82.587 237.443 88.407 234.679 C 89.419 234.198 96.024 230.786 99.106 225.319 C 100.33 223.148 101.943 219.82 102.975 216.302 C 104.257 211.929 104.829 207.489 104.841 207.269 Z"/>
  <path fill="#656565" d="M 282.339 148.597 C 295.224 148.597 305.676 159.046 305.676 171.938 L 305.676 218.616 C 305.676 222.908 302.178 226.397 297.872 226.397 L 204.542 226.397 C 200.242 226.397 196.76 222.911 196.76 218.616 L 196.76 171.938 C 196.76 159.046 207.212 148.597 220.098 148.597 L 282.339 148.597 Z M 266.78 179.72 L 235.657 179.72 C 229.669 179.727 225.934 186.208 228.936 191.394 C 230.161 193.515 232.317 194.933 234.75 195.223 L 235.657 195.279 L 266.78 195.279 C 272.767 195.272 276.505 188.781 273.504 183.597 C 272.274 181.479 270.123 180.062 267.686 179.773 L 266.78 179.72 Z M 251.219 117.478 C 259.464 117.478 267.14 120.05 273.444 124.452 C 278.356 127.874 277.72 135.336 272.297 137.878 C 269.781 139.056 266.824 138.807 264.545 137.213 C 260.637 134.489 255.985 133.03 251.219 133.042 C 246.247 133.042 241.663 134.577 237.89 137.213 C 233.05 140.744 226.209 137.705 225.573 131.752 C 225.264 128.871 226.585 126.06 228.988 124.459 C 235.51 119.908 243.273 117.471 251.219 117.478 Z M 251.219 94.141 C 266.144 94.141 279.857 99.399 290.582 108.17 C 295.16 112.024 293.839 119.393 288.209 121.431 C 285.675 122.341 282.846 121.882 280.736 120.209 C 272.413 113.394 261.976 109.678 251.219 109.697 C 240.016 109.697 229.763 113.634 221.718 120.205 C 217.119 124.034 210.089 121.446 209.074 115.545 C 208.592 112.758 209.668 109.919 211.876 108.155 C 222.975 99.072 236.878 94.122 251.219 94.141 Z M 251.219 70.8 C 271.827 70.77 291.749 78.209 307.301 91.734 C 311.761 95.739 310.208 103.062 304.514 104.92 C 301.96 105.751 299.161 105.209 297.109 103.483 C 284.381 92.415 268.081 86.33 251.219 86.359 C 234.344 86.326 218.036 92.426 205.316 103.513 C 200.799 107.44 193.718 105.003 192.575 99.12 C 192.044 96.394 193.01 93.588 195.113 91.768 C 210.661 78.225 230.599 70.774 251.219 70.8 Z" style="transform-origin: 251.159px 148.598px;"/>
</svg>