<?xml version="1.0" encoding="utf-8"?>
<!-- SPDX-FileCopyrightText: © 2023 OneEyeFPV oneeyefpv@gmail.com -->
<!-- SPDX-License-Identifier: GPL-3.0-or-later -->
<!-- SPDX-License-Identifier: FS-0.9-or-later -->
<svg viewBox="0 0 16 16" style="width: 32px; height: 42px;" xmlns="http://www.w3.org/2000/svg">
    <style>
        path {
          fill: #656565;
        }
        @media ( prefers-color-scheme: dark ) {
          path { fill: #FFFFFF; }
        }
    </style>
    <path
          d="M 11.41 7.999 C 12.734 7.999 13.81 9.073 13.81 10.397 L 13.81 15.194 C 13.81 15.636 13.449 15.995 13.006 15.995 L 3.416 15.995 C 2.973 15.995 2.613 15.637 2.613 15.194 L 2.613 10.397 C 2.613 9.073 3.689 7.999 5.015 7.999 L 11.41 7.999 Z M 9.81 11.197 L 6.612 11.197 C 5.997 11.198 5.613 11.864 5.922 12.396 C 6.048 12.615 6.271 12.761 6.52 12.79 L 6.612 12.796 L 9.81 12.796 C 10.426 12.795 10.811 12.128 10.501 11.596 C 10.375 11.379 10.154 11.234 9.904 11.203 L 9.81 11.197 Z M 8.212 4.802 C 9.06 4.802 9.848 5.066 10.497 5.517 C 11 5.87 10.935 6.636 10.377 6.898 C 10.12 7.019 9.816 6.993 9.582 6.828 C 9.18 6.55 8.702 6.398 8.212 6.399 C 7.701 6.399 7.23 6.559 6.841 6.828 C 6.345 7.194 5.641 6.879 5.578 6.269 C 5.545 5.97 5.68 5.683 5.927 5.518 C 6.599 5.05 7.396 4.801 8.212 4.802 Z M 8.212 2.402 C 9.746 2.402 11.155 2.943 12.257 3.845 C 12.727 4.241 12.592 4.998 12.014 5.208 C 11.754 5.301 11.463 5.253 11.245 5.081 C 10.39 4.382 9.317 3.999 8.212 4.001 C 7.061 4.001 6.008 4.406 5.18 5.081 C 4.708 5.474 3.985 5.209 3.882 4.602 C 3.832 4.317 3.941 4.024 4.17 3.844 C 5.309 2.91 6.739 2.4 8.212 2.402 Z M 8.212 0.004 C 10.33 0.001 12.377 0.766 13.976 2.156 C 14.434 2.567 14.274 3.32 13.688 3.511 C 13.426 3.595 13.139 3.541 12.928 3.363 C 11.62 2.225 9.945 1.601 8.212 1.604 C 6.477 1.6 4.803 2.226 3.494 3.368 C 3.03 3.77 2.301 3.52 2.185 2.916 C 2.13 2.633 2.23 2.346 2.446 2.159 C 4.044 0.767 6.093 0.002 8.212 0.004 Z"
          style="transform-origin: 8.20572px 7.9995px;"/>
</svg>